<svg width="32" height="32" viewBox="0 0 32 32" fill="none" xmlns="http://www.w3.org/2000/svg">
<rect width="32" height="32" rx="16" fill="black"/>
<path d="M16 18.5C17.3834 18.5 18.4917 17.3833 18.4917 16L18.5 11C18.5 9.61667 17.3834 8.5 16 8.5C14.6167 8.5 13.5 9.61667 13.5 11V16C13.5 17.3833 14.6167 18.5 16 18.5ZM21.0667 16C20.7167 16 20.425 16.25 20.375 16.5917C20.0667 18.7667 18.1084 20.25 16 20.25C13.8917 20.25 11.9334 18.775 11.625 16.5917C11.575 16.25 11.275 16 10.9334 16C10.5 16 10.1667 16.3833 10.225 16.8083C10.6084 19.2833 12.6917 21.225 15.1667 21.6V23.5C15.1667 23.9583 15.5417 24.3333 16 24.3333C16.4584 24.3333 16.8334 23.9583 16.8334 23.5V21.6C19.3 21.2417 21.3917 19.2833 21.775 16.8083C21.8334 16.3833 21.5 16 21.0667 16Z" fill="white"/>
</svg>
